<svg xmlns="http://www.w3.org/2000/svg" xmlns:xlink="http://www.w3.org/1999/xlink" viewBox="0 0 963.84 963.84"><defs><style>.cls-1{fill:#f73c4d;}.cls-2{fill:#0093dd;}</style></defs><title>Asset 1</title><g id="Layer_2" data-name="Layer 2"><g id="Layer_1-2" data-name="Layer 1"><image width="4016" height="4016" transform="scale(0.24)" xlink:href=""/><path class="cls-1" d="M892.26,408C874.93,619.43,697.85,785.61,482,785.61S89,619.43,71.64,408h-66C23.14,655.8,229.7,851.41,482,851.41S940.76,655.8,958.25,408Z"/><rect class="cls-2" x="262.25" y="152.5" width="40.76" height="504.29"/><rect class="cls-2" x="659.58" y="152.5" width="40.76" height="504.29"/><rect class="cls-2" x="190.92" y="237.77" width="40.76" height="321.96"/><rect class="cls-2" x="118.25" y="308.02" width="40.76" height="183.59"/><rect class="cls-2" x="732.58" y="238.83" width="40.76" height="321.96"/><rect class="cls-2" x="803.58" y="306.95" width="40.76" height="183.59"/><path class="cls-2" d="M571.33,110.83V241.32c0,50.08-40,90.68-89.33,90.68s-89.33-40.6-89.33-90.68V110.83H336.25V690.61H392V559.69h0c0-.34,0-.67,0-1,0-50.27,40-91,89.34-91s89.33,40.74,89.33,91c0,.34,0,.67,0,1h0V690.61H627V110.83Z"/></g></g></svg>